# xmcd
#
# Track frame offsets:
#        150
#        18889
#        37630
#
# Disc length: 781 seconds
#
# Revision: 0
# Processed by: cddbd v1.5.1PL0 Copyright (c) Steve Scherf et al.
# Submitted via: ExactAudioCopy v0.95b2
#
DISCID=10030b03
DTITLE=HYDE - COUNTDOWN
DYEAR=2005
DGENRE=Rock
TTITLE0=COUNTDOWN
TTITLE1=COUNTDOWN [US]
TTITLE2=EVERGREEN [DIST.]
EXTD=
EXTT0=
EXTT1=
EXTT2=
PLAYORDER=
